<svg width="196" height="24" viewBox="0 0 196 24" fill="none" xmlns="http://www.w3.org/2000/svg">
<g clip-path="url(#clip0_254_664)">
<path fill-rule="evenodd" clip-rule="evenodd" d="M20.1667 0C14.7885 0 11.4281 2.61832 10.0829 7.85497C12.0998 5.23665 14.4526 4.25497 17.1413 4.90916C18.6753 5.28232 19.7723 6.36619 20.9854 7.56619C22.9628 9.52026 25.2516 11.7817 30.2496 11.7817C35.627 11.7817 38.9882 9.16336 40.3325 3.92748C38.3164 6.54581 35.9636 7.52748 33.275 6.87252C31.7401 6.49936 30.6432 5.41548 29.43 4.21626C27.4526 2.26065 25.1647 0 20.1667 0ZM10.0829 11.7817C4.70558 11.7817 1.34434 14.4 0 19.6366C2.0169 17.0183 4.36969 16.0366 7.05758 16.6908C8.59239 17.064 9.68936 18.1479 10.9025 19.3479C12.8799 21.3019 15.1679 23.5634 20.1667 23.5634C25.544 23.5634 28.9053 20.9458 30.2496 15.7092C28.2327 18.3275 25.8799 19.3092 23.1912 18.655C21.6572 18.281 20.5602 17.1972 19.3471 15.9979C17.3697 14.0439 15.0809 11.7817 10.0829 11.7817Z" fill="#38BDF8"/>
<path fill-rule="evenodd" clip-rule="evenodd" d="M60.496 9.92904H56.9767V16.5616C56.9767 18.3306 58.1685 18.3027 60.496 18.192V20.873C55.7841 21.4258 53.911 20.1546 53.911 16.5616V9.92904H51.2998V7.05446H53.911V3.34297L56.9767 2.45807V7.05446H60.496V9.92904ZM73.9109 7.05446H76.9758V20.873H73.9109V18.8834C72.8321 20.3474 71.1574 21.2323 68.9438 21.2323C65.0838 21.2323 61.8767 18.0542 61.8767 13.9634C61.8767 9.8462 65.0838 6.69523 68.9438 6.69523C71.1574 6.69523 72.8321 7.57936 73.9109 9.01704V7.05446ZM69.4266 18.3856C71.981 18.3856 73.9109 16.5337 73.9109 13.9634C73.9109 11.393 71.981 9.54194 69.4266 9.54194C66.8723 9.54194 64.9423 11.3938 64.9423 13.9634C64.9423 16.5337 66.8723 18.3856 69.4266 18.3856ZM82.0844 4.98194C81.0064 4.98194 80.1268 4.09781 80.1268 3.0751C80.1293 2.56825 80.3367 2.08303 80.7036 1.72565C81.0705 1.36827 81.567 1.16785 82.0844 1.16826C82.602 1.16764 83.0987 1.36797 83.4658 1.72537C83.8328 2.08278 84.0404 2.56812 84.0429 3.0751C84.0429 4.09704 83.1632 4.98194 82.0844 4.98194ZM80.552 20.873V7.05446H83.6177V20.873H80.552ZM87.1654 20.873V0.696777H90.2303V20.8723H87.1654V20.873ZM110.127 7.05446H113.362L108.906 20.873H105.898L102.946 11.5595L99.9655 20.873H96.9575L92.5009 7.05446H95.7365L98.49 16.5886L101.47 7.05446H104.394L107.345 16.5886L110.127 7.05446ZM117.165 4.98194C116.086 4.98194 115.207 4.09781 115.207 3.0751C115.209 2.56812 115.417 2.08278 115.784 1.72537C116.151 1.36797 116.648 1.16764 117.165 1.16826C117.683 1.16764 118.18 1.36797 118.547 1.72537C118.914 2.08278 119.121 2.56812 119.124 3.0751C119.124 4.09704 118.244 4.98194 117.165 4.98194ZM115.633 20.873V7.05446H118.698V20.873H115.633ZM129.71 6.69523C132.889 6.69523 135.159 8.79562 135.159 12.3886V20.8723H132.094V12.6921C132.094 10.5917 130.846 9.48697 128.916 9.48697C126.9 9.48697 125.311 10.6475 125.311 13.4663V20.873H122.245V7.05446H125.311V8.82349C126.248 7.38658 127.78 6.69523 129.71 6.69523ZM149.691 1.52749H152.757V20.8723H149.691V18.8826C148.613 20.3474 146.938 21.2315 144.725 21.2315C140.865 21.2315 137.658 18.0534 137.658 13.9626C137.658 9.84542 140.865 6.69446 144.725 6.69446C146.938 6.69446 148.613 7.57858 149.691 9.01626V1.52749ZM145.207 18.3856C147.761 18.3856 149.691 16.5337 149.691 13.9634C149.691 11.393 147.761 9.54194 145.207 9.54194C142.652 9.54194 140.722 11.3938 140.722 13.9634C140.722 16.5337 142.652 18.3856 145.207 18.3856ZM163.031 21.2323C158.745 21.2323 155.538 18.0542 155.538 13.9634C155.538 9.8462 158.745 6.69523 163.031 6.69523C165.812 6.69523 168.225 8.10426 169.36 10.2604L166.72 11.753C166.096 10.4539 164.706 9.62478 163.002 9.62478C160.505 9.62478 158.603 11.4766 158.603 13.9634C158.603 16.4508 160.505 18.3027 163.002 18.3027C164.706 18.3027 166.096 17.4457 166.777 16.1745L169.417 17.6392C168.225 19.8225 165.812 21.2323 163.031 21.2323ZM174.468 10.8681C174.468 13.3835 182.104 11.863 182.104 16.9765C182.104 19.7404 179.634 21.2323 176.569 21.2323C173.731 21.2323 171.687 19.9881 170.779 17.9985L173.419 16.5066C173.873 17.7499 175.008 18.4963 176.569 18.4963C177.932 18.4963 178.981 18.0542 178.981 16.9479C178.981 14.489 171.347 15.871 171.347 10.9239C171.347 8.32568 173.646 6.69523 176.541 6.69523C178.868 6.69523 180.798 7.74581 181.792 9.56981L179.209 10.9788C178.697 9.90117 177.704 9.40336 176.541 9.40336C175.433 9.40336 174.468 9.87329 174.468 10.8681ZM187.553 10.8681C187.553 13.3835 195.188 11.863 195.188 16.9765C195.188 19.7404 192.719 21.2323 189.653 21.2323C186.815 21.2323 184.772 19.9881 183.863 17.9985L186.503 16.5066C186.957 17.7499 188.092 18.4963 189.653 18.4963C191.015 18.4963 192.066 18.0542 192.066 16.9479C192.066 14.489 184.431 15.871 184.431 10.9239C184.431 8.32568 186.729 6.69523 189.625 6.69523C191.952 6.69523 193.882 7.74581 194.875 9.56981L192.293 10.9788C191.782 9.90117 190.789 9.40336 189.625 9.40336C188.518 9.40336 187.553 9.87329 187.553 10.8681Z" fill="black"/>
</g>
<defs>
<clipPath id="clip0_254_664">
<rect width="196" height="24" fill="white"/>
</clipPath>
</defs>
</svg>
