<svg xmlns="http://www.w3.org/2000/svg" fill="none" viewBox="0 0 96 96" id="Angular--Streamline-Svg-Logos" height="566" width="566">
  <desc>
    Angular Streamline Icon: https://streamlinehq.com
  </desc>
  <path fill="url(#a)" d="m22.3021 40.318-.7692 12.0788-7.3545-15.8382 8.1237 3.7594Zm-5.094 15.6185-5.557 3.1708-5.55716-3.1708 1.13025-2.7392h8.85371l1.1302 2.7392Zm-5.557-13.366 2.9119 7.0793H8.73909l2.91201-7.0793Zm-9.88977 9.8263L1 40.318l8.12364-3.7594-7.36231 15.8382Zm86.69727 2.5047V43.4318h2.6211v1.9116h.1195c.2091-.662.5687-1.1735 1.079-1.5345.5103-.3609 1.0939-.5414 1.751-.5414.1494 0 .3174.0063.5041.0187.1866.0124.3422.0311.4667.056v2.4865c-.1146-.0397-.2949-.0757-.5414-.1082-.2464-.0323-.4841-.0486-.7131-.0486-.4928 0-.9347.1058-1.3256.3174-.3909.2117-.6981.504-.9221.8774-.2239.3733-.336.804-.336 1.2919v6.7429h-2.7032ZM82.966 43.2823c.5526 0 1.1027.0649 1.6504.1942.5475.1295 1.0478.3423 1.5008.6385.4529.2963.8178.6982 1.0941 1.206.2761.5077.4143 1.1425.4143 1.9041v7.6764H85.027v-1.5756h-.0896c-.1644.3187-.3946.6161-.6907.8924-.2962.2763-.6672.4979-1.1126.6646-.4456.1667-.9671.2501-1.5645.2501-.7269 0-1.3802-.1307-1.9602-.3921-.58-.2612-1.0379-.6483-1.3739-1.1611-.336-.5127-.504-1.1449-.504-1.8967 0-.647.1195-1.1823.3583-1.6054.239-.4231.5651-.7617.9783-1.0156.4131-.2539.8799-.4468 1.4001-.5787.5202-.1319 1.0592-.2278 1.6167-.2874l.3363-.0356.3899-.0429c.3307-.0374.6192-.0728.8655-.1061l.0437-.006c.4182-.0571.7231-.1467.9147-.2687.1915-.122.2876-.3124.2876-.5713v-.0448c0-.5625-.167-.9981-.5004-1.3068-.3336-.3086-.8139-.463-1.4411-.463-.6622 0-1.1863.1445-1.572.4332-.3859.2887-.6458.6298-.7804 1.023l-2.5238-.3584c.1989-.697.5275-1.2807.9857-1.7511.4579-.4705 1.0179-.8239 1.6801-1.0604.662-.2364 1.3937-.3548 2.1953-.3548Zm1.9639 6.1532c-.0847.0697-.2278.1344-.4292.1941-.2017.0597-.4269.112-.6759.1568-.1991.0359-.3967.0686-.5926.098l-.2023.0294-.5791.0817c-.4031.0548-.7642.1444-1.0828.2688-.3186.1245-.5701.2976-.7542.5191-.1841.2215-.2763.5066-.2763.855 0 .4978.1817.8736.545 1.1275.3636.2539.8265.3808 1.389.3808.5427 0 1.013-.1083 1.4114-.3248.3981-.2166.7058-.5041.9223-.8624.2165-.3586.3247-.7493.3247-1.1724v-1.3516Zm-10.3544 5.466h2.7032V39.6084h-2.7032v15.2931Zm-3.5884-4.8238v-6.6459h2.7032v11.4697h-2.621V52.863h-.1196c-.2588.6421-.6832 1.1674-1.2731 1.5756-.5898.4082-1.3156.6123-2.1768.6123-.7517 0-1.4151-.168-1.9901-.5041-.575-.3359-1.0242-.8262-1.3477-1.471-.3237-.6447-.4853-1.425-.4853-2.341v-7.303h2.703v6.8848c0 .7269.1991 1.3043.5974 1.7325.3983.4281.921.6421 1.5682.6421.3981 0 .7839-.0971 1.1575-.2913.3733-.1941.6806-.484.9221-.8698.2341-.3741.3548-.8407.3619-1.3997l.0003-.0527ZM56.683 43.2823c.6722 0 1.2259.1134 1.6615.3398.4356.2267.7828.4979 1.0417.814.2588.3162.4555.6136.5899.8924h.1494v-1.8967h2.6658v11.6565c0 .9806-.234 1.7921-.7019 2.4343-.4679.6421-1.1078 1.1225-1.9191 1.4412-.8115.3185-1.7325.4779-2.7629.4779-.9708 0-1.8047-.1307-2.5016-.392-.6969-.2614-1.257-.6112-1.6801-1.0492-.4232-.4382-.7168-.9235-.8811-1.4562l2.4344-.5899c.1093.224.2687.4467.4779.6684.209.2214.4915.4057.8475.5526.3559.1467.8052.2203 1.3478.2203.7666 0 1.4014-.1855 1.9043-.5564.5026-.3709.7541-.9795.7541-1.8257v-2.173h-.1345c-.1394.2788-.3422.565-.6084.8587-.2666.2938-.6175.5402-1.0531.7393-.4356.1992-.9819.2987-1.639.2987-.881 0-1.679-.2079-2.3933-.6236-.7144-.4155-1.282-1.0379-1.7025-1.8667-.4207-.829-.6311-1.8681-.6311-3.1177 0-1.2595.2104-2.3235.6311-3.1922.4205-.8688.9894-1.5283 1.7063-1.9789.7169-.4505 1.5158-.6759 2.3969-.6759Zm.7468 2.2179c-.6023 0-1.1052.1568-1.5084.4705-.4032.3136-.7069.7429-.911 1.2881-.2043.5451-.3062 1.1637-.3062 1.8555 0 .702.1033 1.3156.31 1.8408.2065.5253.5127.9334.9183 1.2246.4057.2912.9048.4368 1.4973.4368.5724 0 1.0603-.1393 1.4635-.4181.4034-.2788.7096-.6795.9186-1.2022.2091-.5228.3136-1.15.3136-1.8819 0-.7217-.1034-1.354-.3099-1.8966-.2066-.5426-.5103-.9644-.9109-1.2658-.4009-.3011-.8924-.4517-1.4749-.4517ZM44.0884 48.181v6.7205h-2.7031V43.4318h2.5838v1.9489h.1344c.2637-.6421.6856-1.1524 1.2656-1.5308.5799-.3782 1.2981-.5676 2.1544-.5676.7915 0 1.4821.1694 2.0722.5079.5898.3386 1.0477.8288 1.3739 1.471.3179.6266.4786 1.3835.4817 2.2705v7.3698h-2.7032v-6.8848c0-.7665-.1979-1.3666-.5938-1.7996-.3956-.4331-.942-.6497-1.6389-.6497-.4729 0-.8923.1034-1.2583.3099-.3659.2066-.6521.5041-.8587.8924-.1998.3753-.303.8275-.3096 1.3563l-.0004.055Zm-8.3086-8.5725 5.3913 15.293h-2.957l-1.267-3.7709h-5.7495l-1.2647 3.7709h-2.9571l5.3839-15.293h3.4201Zm-1.6502 3.1362H34.01l-2.0661 6.1606h4.2555l-2.0698-6.1606Z"></path>
  <path fill="url(#b)" d="m17.2081 55.9365-5.557 3.1708-5.55716-3.1708 1.13025-2.7392h8.85371l1.1302 2.7392Zm-5.557-13.366 2.9119 7.0793H8.73909l2.91201-7.0793Zm-9.88977 9.8263L1 40.318l8.12364-3.7594-7.36231 15.8382Z"></path>
  <defs>
    <linearGradient id="a" x1="1" x2="9321.01" y1="1136.44" y2="2026.87" gradientUnits="userSpaceOnUse">
      <stop stop-color="#e847a3"></stop>
      <stop offset=".257" stop-color="#da5af7"></stop>
      <stop offset=".338" stop-color="#dd57f6"></stop>
      <stop offset=".564" stop-color="#b848f4"></stop>
      <stop offset="1" stop-color="#8842f6"></stop>
    </linearGradient>
    <linearGradient id="b" x1="594.463" x2="490.543" y1="975.844" y2="2287.46" gradientUnits="userSpaceOnUse">
      <stop stop-color="#e03440" stop-opacity=".2"></stop>
      <stop offset=".28" stop-color="#e03440" stop-opacity=".62"></stop>
      <stop offset="1" stop-color="#e03440"></stop>
    </linearGradient>
  </defs>
</svg>