<svg width="16" height="20" viewBox="0 0 16 20" fill="none" xmlns="http://www.w3.org/2000/svg">
<path d="M3.25 9.25V10.75H4.75V9.25H3.25ZM3.25 15.25V16.75H4.75V15.25H3.25ZM3.25 4.75V3.25H4.75V4.75H3.25Z" fill="#0174C1"/>
<path fill-rule="evenodd" clip-rule="evenodd" d="M14.4142 0H1.58579L0 1.58579V6.41421L0.58579 7L0 7.58579V12.4142L0.58579 13L0 13.5858V18.4142L1.58579 20H14.4142L16 18.4142V13.5858L15.4142 13L16 12.4142V7.58579L15.4142 7L16 6.41421V1.58579L14.4142 0ZM13.5858 12H2.41421L2 11.5858V8.4142L2.41421 8H13.5858L14 8.4142V11.5858L13.5858 12ZM2 14.4142L2.41421 14H13.5858L14 14.4142V17.5858L13.5858 18H2.41421L2 17.5858V14.4142ZM13.5858 6L14 5.58579V2.41421L13.5858 2H2.41421L2 2.41421V5.58579L2.41421 6H13.5858Z" fill="#0174C1"/>
</svg>
