<svg width="20" height="20" viewBox="0 0 20 20" fill="none" xmlns="http://www.w3.org/2000/svg">
<path d="M19.1298 5.71095V7.09915C19.1298 7.49295 18.8064 7.79215 18.3752 7.79215H17.8824C17.8692 7.79215 17.8582 7.79875 17.856 7.80535C17.7812 8.03855 17.6866 8.26515 17.5766 8.48295C17.5744 8.48955 17.5766 8.50275 17.5854 8.51155L17.933 8.85915C18.0804 9.00655 18.164 9.18255 18.1728 9.36955C18.1838 9.56315 18.1134 9.74575 17.9748 9.88215L16.9936 10.8634C16.7142 11.1428 16.2742 11.123 15.9706 10.8194L15.623 10.4718C15.6142 10.463 15.601 10.4586 15.5944 10.463C15.3788 10.573 15.1522 10.6676 14.919 10.7424C14.9124 10.7446 14.9058 10.7556 14.9058 10.771V11.3254C14.9058 11.4164 14.8878 11.5065 14.853 11.5906C14.8182 11.6746 14.7671 11.751 14.7028 11.8154C14.6384 11.8797 14.562 11.9308 14.478 11.9656C14.3939 12.0004 14.3038 12.0184 14.2128 12.0184H12.8246C12.6408 12.0184 12.4645 11.9453 12.3345 11.8154C12.2046 11.6854 12.1316 11.5091 12.1316 11.3254V10.5004C12.1316 10.3178 12.279 10.1704 12.4616 10.1704C12.6442 10.1704 12.7916 10.3178 12.7916 10.5004V11.3254C12.7916 11.343 12.807 11.3584 12.8246 11.3584H14.2128C14.2304 11.3584 14.2458 11.343 14.2458 11.3254V10.771C14.2458 10.4696 14.435 10.2056 14.7166 10.1154C14.9146 10.0516 15.1082 9.97015 15.293 9.87775C15.557 9.74355 15.876 9.79415 16.0894 10.0076L16.437 10.3552C16.4722 10.3904 16.5008 10.4036 16.5162 10.4036L17.5084 9.41795C17.5216 9.40475 17.4974 9.36075 17.4644 9.32775L17.1168 8.98015C16.9034 8.76675 16.8528 8.44775 16.987 8.18375C17.0816 7.99895 17.163 7.80535 17.2268 7.60515C17.2716 7.46748 17.3591 7.34765 17.4766 7.26301C17.594 7.17837 17.7354 7.13331 17.8802 7.13435H18.373C18.4192 7.13435 18.4676 7.12115 18.4676 7.10135V5.71315C18.4676 5.69335 18.4192 5.68015 18.373 5.68015H17.8802C17.5788 5.68015 17.317 5.49095 17.2246 5.20935C17.1608 5.00915 17.0794 4.81555 16.9848 4.63075C16.919 4.5018 16.8962 4.35523 16.9195 4.21238C16.9429 4.06953 17.0112 3.93787 17.1146 3.83655L17.4644 3.48675C17.4974 3.45375 17.5216 3.41195 17.5084 3.39655L16.5272 2.41535C16.5118 2.40215 16.47 2.42635 16.437 2.45935L16.0872 2.80915C15.8738 3.02255 15.5526 3.07535 15.2886 2.93895C15.106 2.84435 14.9124 2.76295 14.7144 2.69915C14.4328 2.60895 14.2436 2.34495 14.2436 2.04355V1.48915C14.2436 1.47155 14.2282 1.45615 14.2106 1.45615H12.8224C12.8048 1.45615 12.7894 1.47155 12.7894 1.48915V2.04355C12.7894 2.34495 12.6002 2.60675 12.3186 2.69915C12.1206 2.76295 11.927 2.84435 11.7444 2.93895C11.4804 3.07535 11.1592 3.02475 10.9458 2.80915L10.596 2.45935C10.5608 2.42415 10.5322 2.41095 10.5168 2.41095L9.52457 3.39655C9.52017 3.42075 9.53337 3.45155 9.56857 3.48675L9.91837 3.83655C10.1318 4.04995 10.1846 4.37115 10.0482 4.63515C9.95357 4.81775 9.87217 5.01135 9.80837 5.21155C9.71817 5.49095 9.45417 5.68015 9.15497 5.68015H8.65997C8.61377 5.68015 8.56537 5.69335 8.56537 5.71315V7.10135C8.56537 7.12115 8.61377 7.13435 8.65997 7.13435H9.15277C9.45417 7.13435 9.71597 7.32355 9.80837 7.60515C9.87437 7.80755 9.95797 8.00555 10.0548 8.19475C10.0746 8.23215 10.0878 8.27395 10.0922 8.31795L10.1296 8.74475C10.134 8.79095 10.1274 8.83715 10.112 8.88115L9.97997 9.26395C9.95137 9.34755 9.97117 9.43995 10.035 9.50375L10.42 9.88875C10.5377 10.0069 10.62 10.1557 10.6577 10.3181C10.6954 10.4806 10.687 10.6504 10.6334 10.8084L10.5036 11.189C10.486 11.2396 10.4926 11.299 10.5212 11.3562C10.6378 11.5806 10.7368 11.8182 10.8138 12.0624H11.3308C11.7598 12.0624 12.0854 12.3594 12.0854 12.7554V14.1436C12.0854 14.3273 12.0124 14.5036 11.8824 14.6336C11.7524 14.7635 11.5762 14.8366 11.3924 14.8366H10.8358C10.8226 14.8366 10.8116 14.8431 10.8094 14.8497C10.7346 15.0829 10.64 15.3118 10.5278 15.5296C10.5256 15.534 10.5278 15.545 10.5366 15.5538L10.8864 15.9036C11.19 16.2072 11.2098 16.6472 10.9304 16.9266L9.94917 17.9078C9.68737 18.1696 9.23197 18.1696 8.97017 17.9078L8.57857 17.5162C8.56977 17.5074 8.55437 17.503 8.54777 17.5074C8.33217 17.6174 8.10557 17.712 7.87237 17.7868C7.86577 17.789 7.85917 17.8 7.85917 17.8154V18.3698C7.85917 18.5535 7.78616 18.7298 7.65619 18.8598C7.52623 18.9897 7.34996 19.0628 7.16617 19.0628H5.77797C5.39737 19.0628 5.08497 18.7526 5.08497 18.3698V17.8154C5.08497 17.8 5.07617 17.789 5.07177 17.7868C4.83857 17.712 4.61197 17.6174 4.39637 17.5074C4.38977 17.5052 4.37657 17.5074 4.36777 17.5162L4.02017 17.8638C3.71657 18.1674 3.27657 18.1872 2.99717 17.9078L2.02257 16.92C1.95825 16.8557 1.90722 16.7794 1.8724 16.6954C1.83758 16.6114 1.81966 16.5214 1.81966 16.4305C1.81966 16.3395 1.83758 16.2495 1.8724 16.1655C1.90722 16.0815 1.95825 16.0052 2.02257 15.941L2.41637 15.5472C2.42517 15.5384 2.42957 15.523 2.42517 15.5164C2.31297 15.3008 2.21837 15.0742 2.14357 14.8432C2.14137 14.8366 2.13037 14.83 2.11717 14.83H1.62437C1.19537 14.83 0.86977 14.533 0.86977 14.137V12.7488C0.86977 12.3682 1.17997 12.0558 1.56277 12.0558H2.11717C2.13257 12.0558 2.14357 12.047 2.14577 12.0426C2.22277 11.8094 2.31737 11.5806 2.42737 11.3672C2.42957 11.3628 2.42737 11.3518 2.41857 11.343L2.06657 10.991C1.91917 10.8436 1.83557 10.6676 1.82457 10.4806C1.81357 10.287 1.88397 10.1044 2.02257 9.96795L3.00377 8.98675C3.06803 8.92243 3.14433 8.8714 3.22833 8.83658C3.31232 8.80177 3.40235 8.78385 3.49327 8.78385C3.58419 8.78385 3.67422 8.80177 3.75821 8.83658C3.84221 8.8714 3.91851 8.92243 3.98277 8.98675L4.37657 9.38055C4.38537 9.38935 4.39857 9.39375 4.40737 9.38935C4.62077 9.27935 4.84737 9.18475 5.08057 9.10995C5.08717 9.10775 5.09377 9.09675 5.09377 9.08135V8.52695C5.09377 8.34316 5.16678 8.16689 5.29674 8.03693C5.42671 7.90696 5.60297 7.83395 5.78677 7.83395H7.17497C7.35876 7.83395 7.53503 7.90696 7.66499 8.03693C7.79496 8.16689 7.86797 8.34316 7.86797 8.52695V9.35195C7.86797 9.53455 7.72057 9.68195 7.53797 9.68195C7.35537 9.68195 7.20797 9.53455 7.20797 9.35195V8.52695C7.20797 8.50935 7.19257 8.49395 7.17497 8.49395H5.78677C5.76917 8.49395 5.75377 8.50935 5.75377 8.52695V9.08135C5.75377 9.38275 5.56457 9.64455 5.28297 9.73695C5.08497 9.80075 4.89137 9.88215 4.70877 9.97675C4.44477 10.1132 4.12357 10.0626 3.91017 9.84695L3.51637 9.45315C3.51339 9.45002 3.50981 9.44753 3.50584 9.44583C3.50187 9.44413 3.49759 9.44325 3.49327 9.44325C3.48895 9.44325 3.48467 9.44413 3.4807 9.44583C3.47673 9.44753 3.47315 9.45002 3.47017 9.45315L2.48897 10.4344C2.48457 10.4586 2.49777 10.4894 2.53297 10.5246L2.88497 10.8766C3.09837 11.09 3.14897 11.409 3.01257 11.6708C2.91797 11.8534 2.83657 12.047 2.77277 12.2472C2.68257 12.5288 2.41857 12.718 2.11717 12.718H1.56277C1.54517 12.718 1.52977 12.7334 1.52977 12.751V14.1392C1.52977 14.159 1.57817 14.1722 1.62437 14.1722H2.11717C2.41857 14.1722 2.68037 14.3614 2.77057 14.643C2.83437 14.841 2.91577 15.0346 3.01037 15.2172C3.14677 15.4812 3.09617 15.8024 2.88057 16.018L2.48677 16.4118C2.47357 16.425 2.47357 16.4448 2.48677 16.458L3.46797 17.4392C3.48337 17.4524 3.52517 17.4282 3.55817 17.3952L3.90577 17.0476C4.11917 16.8342 4.43817 16.7814 4.70217 16.9178C4.88697 17.0124 5.08057 17.0916 5.27857 17.1554C5.56017 17.2456 5.74937 17.5096 5.74937 17.811V18.3654C5.74937 18.383 5.76477 18.3984 5.78237 18.3984H7.17057C7.18817 18.3984 7.20357 18.383 7.20357 18.3654V17.811C7.20357 17.5096 7.39277 17.2456 7.67437 17.1554C7.87237 17.0916 8.06597 17.0102 8.25077 16.9178C8.51477 16.7836 8.83377 16.8342 9.04717 17.0476L9.43877 17.4392C9.44977 17.4502 9.47397 17.4502 9.48497 17.4392L10.4662 16.458C10.4706 16.4338 10.4574 16.403 10.4222 16.3678L10.0724 16.018C9.86117 15.8068 9.80837 15.4878 9.94257 15.226C10.0372 15.0412 10.1186 14.8454 10.1824 14.6452C10.2272 14.5075 10.3147 14.3876 10.4322 14.303C10.5496 14.2184 10.691 14.1733 10.8358 14.1744H11.3924C11.41 14.1744 11.4254 14.159 11.4254 14.1414V12.7532C11.4254 12.7334 11.377 12.7202 11.3308 12.7202H10.8072C10.5234 12.7202 10.2748 12.5354 10.1868 12.2604C10.1208 12.0514 10.035 11.849 9.93597 11.6554C9.82377 11.4376 9.80397 11.1934 9.87877 10.9712L10.0086 10.5906C10.0372 10.507 10.0152 10.4146 9.95357 10.3508L9.56857 9.96575C9.45088 9.84756 9.36854 9.69884 9.33083 9.53636C9.29313 9.37388 9.30156 9.2041 9.35517 9.04615L9.46297 8.72935L9.43657 8.43675C9.33317 8.23435 9.24737 8.02095 9.17697 7.80315C9.17477 7.79655 9.16377 7.78995 9.15057 7.78995H8.65777C8.22877 7.78995 7.90317 7.49295 7.90317 7.09695V5.70875C7.90317 5.31495 8.22657 5.01575 8.65777 5.01575H9.15277C9.16597 5.01575 9.17697 5.00915 9.17917 5.00255C9.25397 4.76935 9.34857 4.54275 9.46077 4.32715C9.46297 4.32275 9.46077 4.30955 9.45197 4.29855L9.10217 3.94875C8.95477 3.80135 8.87117 3.62535 8.86017 3.43835C8.84917 3.24475 8.91957 3.06215 9.05817 2.92575L10.0394 1.94455C10.178 1.80595 10.3584 1.73775 10.552 1.74655C10.739 1.75755 10.915 1.84115 11.0624 1.98855L11.4122 2.33835C11.421 2.34715 11.4342 2.35155 11.4408 2.34715C11.6564 2.23715 11.883 2.14255 12.114 2.06555C12.1206 2.06335 12.1272 2.05235 12.1272 2.03695V1.48255C12.1272 1.29876 12.2002 1.12249 12.3301 0.992526C12.4601 0.862563 12.6364 0.789551 12.8202 0.789551H14.2084C14.589 0.789551 14.9014 1.09975 14.9014 1.48255V2.03695C14.9014 2.05235 14.9102 2.06335 14.9146 2.06555C15.1456 2.14035 15.3722 2.23495 15.5878 2.34715C15.5944 2.34935 15.6076 2.34715 15.6164 2.33835L15.9662 1.98855C16.2698 1.68495 16.7098 1.66515 16.9892 1.94455L17.9704 2.92575C18.2498 3.20515 18.23 3.64515 17.9264 3.94875L17.5766 4.29855C17.5678 4.30735 17.5656 4.32055 17.5678 4.32495C17.6778 4.54055 17.7724 4.76935 17.8472 5.00255C17.8494 5.00915 17.8604 5.01575 17.8736 5.01575H18.3664C18.8064 5.01795 19.1298 5.31495 19.1298 5.71095ZM2.28657 7.07715C2.31737 7.10795 2.35477 7.13215 2.39437 7.14975C2.39657 7.14975 2.39657 7.14975 2.39877 7.15195C2.43708 7.16805 2.47822 7.17634 2.51977 7.17634C2.56132 7.17634 2.60246 7.16805 2.64077 7.15195C2.64297 7.15195 2.64297 7.15195 2.64517 7.14975C2.68697 7.13215 2.72217 7.10795 2.75297 7.07715L4.07297 5.75715C4.20277 5.62735 4.20277 5.41835 4.07297 5.29075C4.04248 5.25989 4.00617 5.23538 3.96614 5.21866C3.92611 5.20193 3.88315 5.19332 3.83977 5.19332C3.79639 5.19332 3.75343 5.20193 3.7134 5.21866C3.67337 5.23538 3.63706 5.25989 3.60657 5.29075L2.86517 6.03215C3.05657 3.47575 5.19497 1.45395 7.79977 1.45395C7.98237 1.45395 8.12977 1.30655 8.12977 1.12395C8.12977 0.941351 7.98237 0.793951 7.79977 0.793951C4.82317 0.793951 2.38117 3.12595 2.20077 6.05855L1.43297 5.29075C1.40248 5.25989 1.36617 5.23538 1.32614 5.21866C1.28611 5.20193 1.24315 5.19332 1.19977 5.19332C1.15639 5.19332 1.11343 5.20193 1.0734 5.21866C1.03337 5.23538 0.997059 5.25989 0.96657 5.29075C0.935706 5.32124 0.911202 5.35755 0.894477 5.39758C0.877752 5.43761 0.869141 5.48057 0.869141 5.52395C0.869141 5.56734 0.877752 5.61029 0.894477 5.65032C0.911202 5.69035 0.935706 5.72666 0.96657 5.75715L2.28657 7.07715ZM17.713 12.7708C17.6822 12.74 17.6448 12.7158 17.6052 12.6982C17.603 12.6982 17.603 12.6982 17.6008 12.696C17.5625 12.6799 17.5213 12.6716 17.4798 12.6716C17.4382 12.6716 17.3971 12.6799 17.3588 12.696C17.3566 12.696 17.3566 12.696 17.3544 12.6982C17.3126 12.7158 17.2774 12.74 17.2466 12.7708L15.9266 14.0908C15.8957 14.1212 15.8712 14.1576 15.8545 14.1976C15.8378 14.2376 15.8291 14.2806 15.8291 14.324C15.8291 14.3673 15.8378 14.4103 15.8545 14.4503C15.8712 14.4903 15.8957 14.5267 15.9266 14.5572C16.0564 14.687 16.2654 14.687 16.393 14.5572L17.1344 13.8158C16.943 16.3722 14.8046 18.394 12.1998 18.394C12.0172 18.394 11.8698 18.5414 11.8698 18.724C11.8698 18.9066 12.0172 19.054 12.1998 19.054C15.1764 19.054 17.6184 16.722 17.7988 13.7894L18.5666 14.5572C18.6304 14.621 18.7162 14.654 18.7998 14.654C18.8834 14.654 18.9692 14.621 19.033 14.5572C19.1628 14.4274 19.1628 14.2184 19.033 14.0908L17.713 12.7708ZM4.38977 13.444C4.38977 14.5968 5.32697 15.534 6.47977 15.534C7.63257 15.534 8.56977 14.5968 8.56977 13.444C8.56977 12.2912 7.63257 11.354 6.47977 11.354C5.32697 11.354 4.38977 12.2912 4.38977 13.444ZM15.6098 6.40395C15.6098 5.25115 14.6726 4.31395 13.5198 4.31395C12.367 4.31395 11.4298 5.25115 11.4298 6.40395C11.4298 7.55675 12.367 8.49395 13.5198 8.49395C14.6726 8.49395 15.6098 7.55675 15.6098 6.40395Z" fill="#000000"/>
</svg>
