<?xml version="1.0" encoding="utf-8"?>
<svg xmlns="http://www.w3.org/2000/svg" fill="none" id="Angular--Streamline-Svg-Logos" height="566" width="566" viewBox="0 32.127 151.699 45.075">
  <desc>
    Angular Streamline Icon: https://streamlinehq.com
  </desc>
  <path fill="url(#a)" d="M 34.514 42.473 L 33.303 61.476 L 21.732 36.559 L 34.514 42.473 Z M 26.499 67.045 L 17.756 72.034 L 9.014 67.045 L 10.792 62.736 L 24.721 62.736 L 26.499 67.045 Z M 17.756 46.017 L 22.338 57.154 L 13.176 57.154 L 17.756 46.017 Z M 2.198 61.476 L 1 42.473 L 13.78 36.559 L 2.198 61.476 Z M 138.594 65.416 L 138.594 47.371 L 142.717 47.371 L 142.717 50.379 L 142.905 50.379 C 143.234 49.338 143.799 48.533 144.603 47.965 C 145.405 47.397 146.323 47.113 147.357 47.113 C 147.592 47.113 147.856 47.123 148.15 47.143 C 148.444 47.162 148.688 47.192 148.884 47.23 L 148.884 51.142 C 148.704 51.08 148.42 51.024 148.033 50.973 C 147.645 50.922 147.272 50.896 146.911 50.896 C 146.136 50.896 145.441 51.063 144.825 51.396 C 144.21 51.728 143.727 52.188 143.374 52.776 C 143.022 53.363 142.846 54.041 142.846 54.808 L 142.846 65.416 L 138.594 65.416 Z M 129.952 47.137 C 130.822 47.137 131.686 47.238 132.548 47.442 C 133.41 47.645 134.197 47.981 134.909 48.447 C 135.622 48.913 136.196 49.545 136.631 50.344 C 137.066 51.142 137.282 52.141 137.282 53.34 L 137.282 65.416 L 133.195 65.416 L 133.195 62.938 L 133.054 62.938 C 132.795 63.438 132.433 63.907 131.966 64.342 C 131.501 64.776 130.917 65.124 130.216 65.388 C 129.516 65.65 128.695 65.781 127.756 65.781 C 126.612 65.781 125.584 65.575 124.672 65.164 C 123.759 64.753 123.038 64.143 122.51 63.337 C 121.981 62.53 121.717 61.536 121.717 60.353 C 121.717 59.335 121.905 58.493 122.281 57.828 C 122.657 57.161 123.169 56.629 123.82 56.23 C 124.47 55.83 125.204 55.527 126.022 55.32 C 126.841 55.112 127.689 54.961 128.566 54.867 L 129.095 54.811 L 129.709 54.744 C 130.228 54.685 130.683 54.629 131.07 54.576 L 131.138 54.567 C 131.797 54.478 132.276 54.337 132.578 54.144 C 132.879 53.952 133.03 53.652 133.03 53.245 L 133.03 53.175 C 133.03 52.29 132.768 51.605 132.243 51.12 C 131.718 50.634 130.963 50.391 129.976 50.391 C 128.934 50.391 128.11 50.618 127.502 51.072 C 126.896 51.527 126.487 52.063 126.275 52.681 L 122.305 52.118 C 122.617 51.021 123.134 50.103 123.855 49.363 C 124.575 48.622 125.457 48.066 126.499 47.695 C 127.54 47.323 128.691 47.137 129.952 47.137 Z M 133.042 56.817 C 132.909 56.927 132.683 57.028 132.367 57.123 C 132.049 57.216 131.695 57.298 131.303 57.369 C 130.99 57.425 130.679 57.477 130.371 57.523 L 130.053 57.569 L 129.142 57.698 C 128.507 57.784 127.939 57.925 127.438 58.121 C 126.936 58.317 126.541 58.589 126.251 58.938 C 125.962 59.286 125.816 59.734 125.816 60.283 C 125.816 61.065 126.102 61.657 126.674 62.056 C 127.246 62.456 127.975 62.656 128.86 62.656 C 129.714 62.656 130.453 62.485 131.08 62.145 C 131.706 61.804 132.19 61.351 132.531 60.788 C 132.872 60.223 133.042 59.609 133.042 58.944 L 133.042 56.817 Z M 116.752 65.416 L 121.004 65.416 L 121.004 41.356 L 116.752 41.356 L 116.752 65.416 Z M 111.107 57.828 L 111.107 47.371 L 115.359 47.371 L 115.359 65.416 L 111.236 65.416 L 111.236 62.209 L 111.048 62.209 C 110.641 63.22 109.973 64.046 109.044 64.689 C 108.117 65.33 106.975 65.652 105.62 65.652 C 104.437 65.652 103.394 65.388 102.489 64.858 C 101.584 64.33 100.878 63.559 100.368 62.544 C 99.86 61.53 99.605 60.302 99.605 58.861 L 99.605 47.371 L 103.858 47.371 L 103.858 58.203 C 103.858 59.347 104.171 60.255 104.798 60.928 C 105.424 61.603 106.246 61.939 107.265 61.939 C 107.891 61.939 108.498 61.786 109.086 61.48 C 109.673 61.176 110.156 60.719 110.537 60.112 C 110.905 59.523 111.095 58.79 111.106 57.911 L 111.107 57.828 Z M 88.603 47.137 C 89.661 47.137 90.531 47.315 91.216 47.671 C 91.902 48.028 92.448 48.455 92.855 48.952 C 93.262 49.45 93.572 49.917 93.784 50.356 L 94.018 50.356 L 94.018 47.371 L 98.212 47.371 L 98.212 65.71 C 98.212 67.253 97.845 68.53 97.108 69.54 C 96.372 70.55 95.365 71.306 94.089 71.808 C 92.813 72.309 91.363 72.559 89.742 72.559 C 88.215 72.559 86.903 72.354 85.807 71.943 C 84.71 71.532 83.829 70.981 83.164 70.291 C 82.498 69.602 82.036 68.839 81.777 68.001 L 85.608 67.072 C 85.779 67.425 86.03 67.775 86.359 68.124 C 86.688 68.472 87.132 68.762 87.693 68.994 C 88.252 69.225 88.959 69.34 89.812 69.34 C 91.019 69.34 92.018 69.048 92.809 68.465 C 93.599 67.882 93.995 66.924 93.995 65.593 L 93.995 62.175 L 93.784 62.175 C 93.564 62.612 93.245 63.063 92.826 63.525 C 92.407 63.988 91.855 64.375 91.169 64.689 C 90.484 65.001 89.625 65.158 88.591 65.158 C 87.205 65.158 85.95 64.831 84.826 64.177 C 83.702 63.523 82.809 62.544 82.147 61.24 C 81.486 59.936 81.154 58.301 81.154 56.335 C 81.154 54.353 81.486 52.68 82.147 51.313 C 82.809 49.946 83.704 48.909 84.832 48.199 C 85.96 47.492 87.217 47.137 88.603 47.137 Z M 89.778 50.626 C 88.83 50.626 88.039 50.872 87.405 51.366 C 86.77 51.859 86.293 52.534 85.971 53.392 C 85.65 54.25 85.489 55.223 85.489 56.311 C 85.489 57.417 85.652 58.382 85.977 59.208 C 86.302 60.034 86.784 60.676 87.422 61.134 C 88.061 61.593 88.845 61.822 89.778 61.822 C 90.678 61.822 91.446 61.603 92.08 61.164 C 92.715 60.725 93.196 60.094 93.525 59.272 C 93.854 58.45 94.018 57.463 94.018 56.311 C 94.018 55.177 93.856 54.182 93.531 53.328 C 93.206 52.474 92.728 51.811 92.098 51.337 C 91.467 50.862 90.694 50.626 89.778 50.626 Z M 68.788 54.843 L 68.788 65.416 L 64.536 65.416 L 64.536 47.371 L 68.601 47.371 L 68.601 50.437 L 68.812 50.437 C 69.227 49.428 69.89 48.624 70.803 48.03 C 71.715 47.434 72.845 47.137 74.193 47.137 C 75.438 47.137 76.525 47.403 77.452 47.935 C 78.381 48.469 79.101 49.24 79.614 50.25 C 80.114 51.236 80.367 52.426 80.372 53.822 L 80.372 65.416 L 76.119 65.416 L 76.119 54.585 C 76.119 53.379 75.808 52.435 75.185 51.754 C 74.563 51.072 73.703 50.731 72.607 50.731 C 71.862 50.731 71.203 50.894 70.627 51.219 C 70.051 51.545 69.601 52.012 69.276 52.623 C 68.962 53.214 68.799 53.925 68.789 54.757 L 68.788 54.843 Z M 55.717 41.356 L 64.199 65.416 L 59.546 65.416 L 57.553 59.484 L 48.508 59.484 L 46.519 65.416 L 41.866 65.416 L 50.336 41.356 L 55.717 41.356 Z M 53.12 46.291 L 52.933 46.291 L 49.683 55.983 L 56.377 55.983 L 53.12 46.291 Z"/>
  <path fill="url(#b)" d="M 26.864 67.481 L 17.996 72.541 L 9.129 67.481 L 10.932 63.11 L 25.06 63.11 L 26.864 67.481 L 26.864 67.481 Z M 17.996 46.152 L 22.643 57.449 L 13.35 57.449 L 17.996 46.152 L 17.996 46.152 Z M 2.215 61.832 L 1 42.558 L 13.963 36.559 L 2.215 61.832 L 2.215 61.832 Z"/>
  <defs>
    <linearGradient id="a" x1="1" x2="9321.01" y1="1136.44" y2="2026.87" gradientUnits="userSpaceOnUse" gradientTransform="matrix(1.573239, 0, 0, 1.573239, -0.573239, -20.956798)">
      <stop stop-color="#e847a3"/>
      <stop offset="0.257" stop-color="#da5af7"/>
      <stop offset="0.338" stop-color="#dd57f6"/>
      <stop offset="0.564" stop-color="#b848f4"/>
      <stop offset="1" stop-color="#8842f6"/>
    </linearGradient>
    <linearGradient id="b" x1="594.463" x2="490.543" y1="975.844" y2="2287.46" gradientUnits="userSpaceOnUse" gradientTransform="matrix(1.595745, 0, 0, 1.595745, -0.595745, -21.779593)">
      <stop stop-color="#e03440" stop-opacity=".2"/>
      <stop offset="0.28" stop-color="#e03440" stop-opacity=".62"/>
      <stop offset="1" stop-color="#e03440"/>
    </linearGradient>
  </defs>
</svg>