<svg xmlns="http://www.w3.org/2000/svg" fill="none" viewBox="0 0 500 500" id="Laravel--Streamline-Svg-Logos" height="500" width="500">
  <desc>
    Laravel Streamline Icon: https://streamlinehq.com
  </desc>
  <path fill="#ff2d20" d="M487.5208333333333 115.96510416666666c0.17604166666666665 0.6526041666666667 0.2677083333333333 1.3255208333333333 0.2677083333333333 2.0015625v105.08802083333333c0 2.7453125 -1.4682291666666665 5.280729166666666 -3.8499999999999996 6.646875l-88.20208333333332 50.78125v100.65364583333334c0 2.7390625 -1.4557291666666667 5.267708333333333 -3.83125 6.646875L207.7911458333333 493.77135416666664c-0.42135416666666664 0.23958333333333331 -0.8812499999999999 0.39270833333333327 -1.3411458333333333 0.5552083333333333 -0.1723958333333333 0.057812499999999996 -0.3348958333333333 0.16302083333333334 -0.5171875 0.2109375 -1.2869791666666666 0.3390625 -2.6395833333333334 0.3390625 -3.9265624999999997 0 -0.2109375 -0.05729166666666666 -0.4026041666666666 -0.1723958333333333 -0.6036458333333333 -0.24895833333333334 -0.42135416666666664 -0.15312499999999998 -0.8619791666666666 -0.2875 -1.2640624999999999 -0.5171875L16.062395833333333 387.78333333333336c-2.3801041666666665 -1.3671875 -3.850260416666666 -3.902083333333333 -3.850260416666666 -6.646875V65.87291666666667c0 -0.6895833333333332 0.09578125 -1.3598958333333333 0.26817708333333334 -2.011458333333333 0.05744791666666666 -0.22031249999999997 0.1915625 -0.42135416666666664 0.26817708333333334 -0.6416666666666666 0.14364583333333333 -0.40208333333333335 0.2777604166666667 -0.8140624999999999 0.48843749999999997 -1.1875 0.14369791666666665 -0.24895833333333334 0.354375 -0.45 0.5267708333333333 -0.6802083333333333 0.22031249999999997 -0.30624999999999997 0.4214583333333333 -0.6223958333333333 0.6800520833333332 -0.890625 0.22031249999999997 -0.22031249999999997 0.5076041666666666 -0.3833333333333333 0.7566666666666666 -0.5744791666666667 0.2777604166666667 -0.23020833333333335 0.5267708333333333 -0.47916666666666663 0.8428124999999999 -0.6609375000000001h0.009583333333333333L108.09583333333333 6.231927083333334c2.3713541666666664 -1.3647916666666666 5.290104166666667 -1.3647916666666666 7.661979166666667 0L207.80052083333334 59.22604166666666h0.019270833333333334c0.30624999999999997 0.19166666666666665 0.5651041666666666 0.4307291666666666 0.8427083333333333 0.6510416666666666 0.24895833333333334 0.19166666666666665 0.5270833333333333 0.3640625 0.7473958333333333 0.575 0.26822916666666663 0.27760416666666665 0.459375 0.59375 0.6895833333333332 0.9 0.16249999999999998 0.23020833333333335 0.38281249999999994 0.43124999999999997 0.5171875 0.6802083333333333 0.22031249999999997 0.3833333333333333 0.3447916666666666 0.7854166666666665 0.4979166666666667 1.1875 0.07656249999999999 0.22031249999999997 0.21041666666666664 0.42135416666666664 0.26822916666666663 0.6515624999999999 0.17604166666666665 0.6526041666666667 0.2661458333333333 1.3255208333333333 0.26822916666666663 2.0015625v196.91041666666666l76.69895833333334 -44.16354166666667V117.95729166666666c0 -0.6708333333333333 0.09583333333333333 -1.3505208333333332 0.26822916666666663 -1.9921875 0.0671875 -0.23020833333333335 0.19166666666666665 -0.43124999999999997 0.26822916666666663 -0.6515624999999999 0.15312499999999998 -0.40208333333333335 0.2875 -0.8140624999999999 0.4979166666666667 -1.1875 0.14375 -0.24895833333333334 0.3541666666666667 -0.45 0.5171875 -0.6802083333333333 0.2296875 -0.30624999999999997 0.42135416666666664 -0.6223958333333333 0.6895833333333332 -0.890625 0.22031249999999997 -0.22031249999999997 0.4979166666666667 -0.3833333333333333 0.7473958333333333 -0.5744791666666667 0.2869791666666667 -0.23020833333333335 0.5359375 -0.47916666666666663 0.8427083333333333 -0.6609375000000001h0.009375l92.05260416666665 -52.994270833333324c2.370833333333333 -1.3666666666666667 5.2906249999999995 -1.3666666666666667 7.661979166666667 0L483.9479166666667 111.31979166666666c0.3260416666666667 0.19166666666666665 0.575 0.4307291666666666 0.8619791666666666 0.6510416666666666 0.23958333333333331 0.19166666666666665 0.5171875 0.3640625 0.7374999999999999 0.575 0.26822916666666663 0.27760416666666665 0.45989583333333334 0.59375 0.6895833333333332 0.9 0.1723958333333333 0.23020833333333335 0.3833333333333333 0.43124999999999997 0.5171875 0.6802083333333333 0.22031249999999997 0.3734375 0.3447916666666666 0.7854166666666665 0.4984374999999999 1.1875 0.0859375 0.22031249999999997 0.21041666666666664 0.42135416666666664 0.26822916666666663 0.6515624999999999ZM472.4453125 218.61979166666666V131.23177083333331l-32.21041666666667 18.542708333333334 -44.498437499999994 25.620833333333334v87.38802083333333l76.71822916666666 -44.16354166666667h-0.009375ZM380.40260416666666 376.70156249999997V289.25624999999997l-43.77083333333333 24.997916666666665 -124.990625 71.3359375v88.26875l168.76145833333334 -97.15729166666665ZM27.55578125 79.13802083333333v297.56354166666665L196.29791666666665 473.84947916666664v-88.24999999999999l-88.1546875 -49.890625 -0.02864583333333333 -0.019270833333333334 -0.03802083333333333 -0.019270833333333334c-0.296875 -0.1723958333333333 -0.5458333333333333 -0.42135416666666664 -0.8239583333333333 -0.6322916666666666 -0.2390625 -0.19114583333333335 -0.5171875 -0.3447916666666666 -0.7276041666666666 -0.5552083333333333l-0.019270833333333334 -0.02864583333333333c-0.24895833333333334 -0.23958333333333331 -0.42135416666666664 -0.5364583333333333 -0.6322916666666666 -0.8046875 -0.19166666666666665 -0.25885416666666666 -0.42135416666666664 -0.47916666666666663 -0.5744791666666667 -0.746875l-0.009895833333333333 -0.029166666666666664c-0.1723958333333333 -0.2869791666666667 -0.27760416666666665 -0.6317708333333333 -0.40208333333333335 -0.9578125 -0.12447916666666667 -0.2869791666666667 -0.2875 -0.5552083333333333 -0.3640625 -0.8619791666666666v-0.009375c-0.09583333333333333 -0.3640625 -0.11458333333333331 -0.746875 -0.15312499999999998 -1.1208333333333333 -0.03802083333333333 -0.2869791666666667 -0.11510416666666667 -0.5744791666666667 -0.11510416666666667 -0.8619791666666666V123.30156249999999l-44.48854166666666 -25.630208333333332 -32.21036458333333 -18.5234375v-0.009895833333333333ZM111.93645833333333 21.72880208333333 35.24677083333333 65.87291666666667l76.67041666666667 44.14427083333333 76.6796875 -44.15364583333333 -76.6796875 -44.13473958333333h0.019270833333333334Zm39.881770833333334 275.49619791666663 44.489062499999996 -25.6109375V79.13802083333333l-32.21041666666667 18.542708333333334 -44.498437499999994 25.620833333333334v192.47552083333332l32.219791666666666 -18.552083333333332Zm236.25572916666667 -223.40260416666666 -76.6796875 44.14427083333333 76.6796875 44.14427083333333 76.67083333333333 -44.15364583333333 -76.67083333333333 -44.13489583333333Zm-7.671354166666667 101.57291666666666 -44.49895833333333 -25.620833333333334 -32.209895833333334 -18.542708333333334V218.61979166666666l44.489062499999996 25.61145833333333 32.219791666666666 18.552083333333332V175.3953125Zm-176.44270833333334 196.92916666666667L316.4322916666667 308.11510416666664l56.221875000000004 -32.0859375 -76.62291666666667 -44.11510416666667 -88.22083333333333 50.791145833333324 -80.40572916666666 46.28958333333333 76.55520833333334 43.3296875Z" stroke-width="5.2083"></path>
</svg>